<?xml version="1.0" encoding="iso-8859-1"?>
<!-- Generator: Adobe Illustrator 19.0.0, SVG Export Plug-In . SVG Version: 6.00 Build 0)  -->
<svg version="1.1" id="Capa_1" xmlns="http://www.w3.org/2000/svg" xmlns:xlink="http://www.w3.org/1999/xlink" x="0px" y="0px"
	 viewBox="0 0 512.001 512.001" style="enable-background:new 0 0 512.001 512.001;" xml:space="preserve">
<path style="fill:#F9CB2A;" d="M273.174,21.305L21.306,273.173c-28.408,28.408-28.408,74.63,0,103.036l114.485,114.485
	c28.408,28.408,74.63,28.408,103.036,0l251.868-251.868c28.407-28.408,28.407-74.63,0-103.036L376.21,21.305
	C347.803-7.102,301.581-7.102,273.174,21.305z"/>
<path style="fill:#F7B906;" d="M152.964,473.522L38.479,359.037c-28.408-28.408-28.408-74.63,0-103.036l-17.173,17.173
	c-28.408,28.408-28.408,74.63,0,103.036l114.485,114.485c28.408,28.408,74.63,28.408,103.036,0L256,473.522
	C227.594,501.929,181.372,501.929,152.964,473.522z"/>
<path style="fill:#F9A01B;" d="M273.174,21.305L21.306,273.173c-28.408,28.408-28.408,74.63,0,103.036l22.897,22.897
	c3.161,3.161,8.287,3.161,11.449,0L399.108,55.651c3.161-3.161,3.161-8.287,0-11.449l-22.897-22.897
	C347.803-7.102,301.581-7.102,273.174,21.305z"/>
<path style="fill:#F7833B;" d="M44.203,364.761c-22.13-22.13-22.13-58.01,0-80.14L307.519,21.305
	c9.809-9.808,21.718-16.233,34.28-19.279c-23.851-5.721-50.047,0.701-68.625,19.279L21.306,273.173
	c-28.408,28.408-28.408,74.63,0,103.036l22.897,22.897c3.161,3.161,8.287,3.161,11.449,0L67.1,387.657L44.203,364.761z"/>
<path style="fill:#AEBB32;" d="M381.934,141.514L141.515,381.933c-3.161,3.161-3.161,8.287,0,11.449l40.07,40.07
	c15.782,15.782,41.46,15.782,57.243,0c10.723-10.723,14.161-26.013,10.312-39.665c10.846,0.299,21.672-3.767,29.757-11.854
	c8.865-8.865,12.899-21.027,11.644-32.895c16.023,3.777,33.445-0.746,45.598-12.899c12.707-12.707,17.074-31.174,12.33-47.78
	c8.103-0.228,16.036-3.484,22.015-9.463c5.101-5.101,8.22-11.622,9.168-18.459c17.777,7.746,39.279,4.358,53.799-10.162
	c18.938-18.938,18.938-49.753,0-68.691l-40.07-40.07C390.222,138.353,385.097,138.353,381.934,141.514z"/>
<path style="fill:#A3AF44;" d="M433.453,181.584l-40.07-40.07c-3.161-3.161-8.287-3.161-11.449,0L141.515,381.933
	c-3.161,3.161-3.161,8.287,0,11.449l40.07,40.07c2.088,2.088,4.351,3.89,6.738,5.425l250.661-250.661
	C437.364,185.887,435.529,183.661,433.453,181.584z"/>
<path style="fill:#F3561D;" d="M399.108,32.754L32.755,399.107c-25.25,25.25-25.25,66.337,0,91.589
	c25.25,25.25,66.337,25.25,91.589,0l366.353-366.353c25.25-25.25,25.25-66.337,0-91.588C465.445,7.503,424.358,7.503,399.108,32.754
	z"/>
<path style="fill:#ED3124;" d="M61.376,496.419c-25.25-25.25-25.25-66.337,0-91.589L427.729,38.478
	c12.154-12.154,27.978-18.44,43.938-18.893c-23.861-10.8-52.973-6.418-72.559,13.17L32.755,399.107
	c-25.25,25.25-25.25,66.337,0,91.589c13.096,13.096,30.453,19.382,47.65,18.893C73.504,506.466,67.04,502.083,61.376,496.419z"/>
<path style="fill:#FFD74A;" d="M114.923,435.403c-6.139,0-12.507-2.47-17.752-4.504c-3.465-1.344-11.58-4.491-12.898-3.171
	c-3.162,3.161-8.288,3.162-11.449,0c-3.161-3.161-3.162-8.287,0-11.448c8.781-8.783,21.161-3.982,30.201-0.476
	c3.465,1.344,11.578,4.488,12.898,3.171c1.32-1.32-1.827-9.434-3.17-12.9c-3.504-9.039-8.306-21.419,0.477-30.201
	c8.782-8.781,21.161-3.981,30.201-0.476c3.466,1.345,11.579,4.492,12.898,3.171c1.32-1.32-1.828-9.434-3.17-12.899
	c-3.505-9.039-8.306-21.419,0.477-30.201c8.781-8.781,21.161-3.982,30.201-0.476c3.465,1.344,11.581,4.49,12.899,3.171
	c1.32-1.32-1.828-9.434-3.171-12.899c-3.505-9.039-8.306-21.419,0.476-30.201c8.781-8.782,21.162-3.982,30.201-0.477
	c3.465,1.344,11.579,4.491,12.899,3.171s-1.827-9.435-3.17-12.9c-3.504-9.039-8.306-21.419,0.477-30.201
	c8.782-8.782,21.161-3.981,30.2-0.475c3.758,1.458,11.58,4.49,12.897,3.172c1.32-1.32-1.828-9.433-3.17-12.899
	c-3.505-9.039-8.306-21.419,0.476-30.2c8.78-8.781,21.16-3.982,30.201-0.476c3.464,1.344,11.578,4.489,12.898,3.17
	c1.321-1.321-1.826-9.435-3.169-12.9c-3.504-9.039-8.305-21.419,0.478-30.202c8.781-8.781,21.162-3.982,30.202-0.478
	c3.466,1.344,11.58,4.489,12.901,3.169c1.321-1.321-1.826-9.436-3.169-12.901c-3.504-9.039-8.305-21.419,0.479-30.202
	c8.781-8.783,21.162-3.982,30.202-0.478c3.466,1.344,11.579,4.491,12.901,3.169c1.321-1.321-1.825-9.436-3.168-12.902
	c-3.504-9.039-8.304-21.419,0.48-30.203c8.782-8.782,21.163-3.983,30.203-0.48c3.466,1.345,11.583,4.491,12.902,3.168
	c3.161-3.161,8.287-3.161,11.448,0c3.162,3.161,3.162,8.287,0,11.448c-8.782,8.782-21.163,3.983-30.203,0.48
	c-3.466-1.343-11.579-4.487-12.902-3.168c-1.321,1.322,1.826,9.437,3.168,12.902c3.504,9.04,8.304,21.42-0.48,30.203
	c-8.783,8.782-21.164,3.983-30.202,0.478c-3.466-1.343-11.578-4.489-12.901-3.169c-1.321,1.321,1.826,9.436,3.169,12.901
	c3.504,9.039,8.305,21.419-0.479,30.202c-8.781,8.782-21.162,3.983-30.202,0.478c-3.466-1.343-11.579-4.488-12.901-3.169
	c-1.32,1.321,1.827,9.435,3.17,12.9c3.505,9.039,8.306,21.419-0.478,30.202c-8.783,8.781-21.162,3.98-30.201,0.476
	c-3.465-1.344-11.579-4.49-12.899-3.171c-1.319,1.32,1.828,9.433,3.171,12.898c3.505,9.039,8.306,21.419-0.476,30.201
	c-8.78,8.781-21.16,3.981-30.2,0.475c-3.758-1.458-11.577-4.492-12.897-3.172c-1.32,1.32,1.828,9.434,3.17,12.899
	c3.505,9.039,8.306,21.419-0.477,30.202c-8.781,8.78-21.161,3.982-30.201,0.477c-3.465-1.345-11.581-4.489-12.899-3.171
	c-1.32,1.32,1.828,9.433,3.171,12.899c3.505,9.039,8.306,21.419-0.476,30.201c-8.781,8.781-21.161,3.982-30.201,0.476
	c-3.465-1.344-11.58-4.491-12.899-3.171c-1.32,1.32,1.828,9.433,3.17,12.899c3.505,9.039,8.306,21.419-0.477,30.201
	c-8.781,8.782-21.161,3.981-30.2,0.476c-3.465-1.344-11.579-4.492-12.899-3.171c-1.32,1.32,1.828,9.434,3.17,12.899
	c3.505,9.039,8.306,21.419-0.477,30.201C123.685,434.11,119.364,435.403,114.923,435.403z"/>
<g>
	<path style="fill:#F37121;" d="M175.862,183.956c-2.071,0-4.144-0.79-5.724-2.371c-3.162-3.161-3.162-8.287,0-11.448l0.715-0.715
		c3.161-3.161,8.287-3.161,11.448,0c3.162,3.161,3.162,8.287,0,11.448l-0.715,0.715
		C180.004,183.165,177.933,183.956,175.862,183.956z"/>
	<path style="fill:#F37121;" d="M221.656,138.162c-2.071,0-4.144-0.79-5.724-2.371c-3.162-3.161-3.162-8.287,0-11.448l0.715-0.715
		c3.161-3.161,8.287-3.161,11.448,0c3.162,3.161,3.162,8.287,0,11.448l-0.715,0.715
		C225.799,137.372,223.727,138.162,221.656,138.162z"/>
	<path style="fill:#F37121;" d="M267.449,92.368c-2.072,0-4.146-0.791-5.726-2.373c-3.16-3.162-3.159-8.288,0.004-11.448
		l0.716-0.715c3.162-3.161,8.289-3.159,11.448,0.004c3.16,3.162,3.159,8.288-0.004,11.448l-0.716,0.715
		C271.591,91.578,269.52,92.368,267.449,92.368z"/>
	<path style="fill:#F37121;" d="M130.067,229.75c-2.071,0-4.142-0.789-5.722-2.369c-3.162-3.16-3.164-8.286-0.004-11.448
		l0.715-0.716c3.16-3.162,8.286-3.163,11.448-0.004c3.162,3.16,3.164,8.286,0.004,11.448l-0.715,0.716
		C134.212,228.959,132.14,229.75,130.067,229.75z"/>
	<path style="fill:#F37121;" d="M84.273,275.544c-2.071,0-4.144-0.79-5.724-2.371c-3.162-3.161-3.162-8.287,0-11.448l0.715-0.715
		c3.161-3.161,8.287-3.161,11.448,0c3.162,3.161,3.162,8.287,0,11.448l-0.715,0.715C88.417,274.753,86.345,275.544,84.273,275.544z"
		/>
	<path style="fill:#F37121;" d="M221.656,183.956c-2.071,0-4.144-0.79-5.724-2.371c-3.162-3.161-3.162-8.287,0-11.448l0.715-0.715
		c3.161-3.161,8.287-3.161,11.448,0c3.162,3.161,3.162,8.287,0,11.448l-0.715,0.715
		C225.799,183.165,223.727,183.956,221.656,183.956z"/>
	<path style="fill:#F37121;" d="M267.449,138.162c-2.072,0-4.146-0.791-5.726-2.373c-3.16-3.162-3.159-8.288,0.004-11.448
		l0.716-0.715c3.162-3.161,8.289-3.159,11.448,0.004c3.16,3.162,3.159,8.288-0.004,11.448l-0.716,0.715
		C271.591,137.373,269.52,138.162,267.449,138.162z"/>
	<path style="fill:#F37121;" d="M175.862,229.75c-2.071,0-4.142-0.789-5.722-2.369c-3.162-3.16-3.164-8.286-0.004-11.448
		l0.715-0.716c3.161-3.162,8.287-3.163,11.448-0.004c3.162,3.16,3.164,8.286,0.004,11.448l-0.715,0.716
		C180.007,228.959,177.934,229.75,175.862,229.75z"/>
	<path style="fill:#F37121;" d="M130.067,275.544c-2.071,0-4.144-0.79-5.724-2.371c-3.162-3.161-3.162-8.287,0-11.448l0.715-0.715
		c3.161-3.161,8.287-3.161,11.448,0c3.162,3.161,3.162,8.287,0,11.448l-0.715,0.715
		C134.211,274.753,132.139,275.544,130.067,275.544z"/>
</g>
<g>
</g>
<g>
</g>
<g>
</g>
<g>
</g>
<g>
</g>
<g>
</g>
<g>
</g>
<g>
</g>
<g>
</g>
<g>
</g>
<g>
</g>
<g>
</g>
<g>
</g>
<g>
</g>
<g>
</g>
</svg>
